<svg xmlns="http://www.w3.org/2000/svg" id="ico_auto" width="50" height="50" viewBox="0 0 50 50">
    <defs>
        <style>
            .cls-2{fill:#a381ff;stroke:#373737;stroke-width:.8px}
        </style>
    </defs>
    <g id="ico_auto-2" transform="translate(-59.668 -61.715)">
        <path id="패스_25" d="M68.8 84.96c1.99-14.114 19.589-18.992 28.346-7.86q2.588 3.255 5.2 6.529-.32-7.671-.643-15.323c-1.143 1.264-2.3 2.54-3.436 3.821-11.966-11.144-31.3-4.107-33.6 12.223 1.572.24 3.132.465 4.7.688" class="cls-2"/>
        <path id="패스_26" d="M65.882 80.052q.32 7.663.643 15.329 1.714-1.913 3.436-3.827c11.966 11.144 31.3 4.1 33.6-12.234-1.379-.2-2.76-.408-4.133-.6-2 14.114-19.589 19-28.346 7.866l-5.2-6.529" class="cls-2" transform="translate(1.102 10.204)"/>
        <path id="패스_27" d="M84.578 83.731a6.748 6.748 0 1 0-9.056 3.022 6.75 6.75 0 0 0 9.056-3.022" class="cls-2" transform="translate(6.125 6.229)"/>
    </g>
</svg>
